HIERARCHY
ROOT Hips
{
	OFFSET	0.00	0.00	0.00
	CHANNELS 6 Xposition Yposition Zposition Zrotation Xrotation Yrotation
	JOINT Spine
	{
		OFFSET	 0.00	0.01	 0.00
		CHANNELS 3 Zrotation Xrotation Yrotation
		JOINT Spine1
		{
			OFFSET	 0.00	 2.45913012437421	 0.00
			CHANNELS 3 Zrotation Xrotation Yrotation
            JOINT Neck
            {
                OFFSET	 0.00	 2.48462964506057	 0.00
                CHANNELS 3 Zrotation Xrotation Yrotation
                JOINT Head
                {
                    OFFSET	 0.00	 0.927524780924562	 0.00
                    CHANNELS 3 Zrotation Xrotation Yrotation
                    End Site 
                    {
                        OFFSET	 0.00	 1.14999962169752	 0.00
                    }
                }
            }
			JOINT LeftShoulder
			{
				OFFSET	 0.00	 2.48462964506057	 0.00
				CHANNELS 3 Zrotation Xrotation Yrotation
				JOINT LeftUpArm
				{
					OFFSET	 0.00	 1.24881979654096	 0.00
					CHANNELS 3 Zrotation Xrotation Yrotation
					JOINT LeftForeArm
					{
						OFFSET	 0.00	2.59758046908119	 0.00
						CHANNELS 3 Zrotation Xrotation Yrotation
						JOINT LeftHand
						{
							OFFSET	 0.00	2.45542024364365	 0.00
							CHANNELS 3 Zrotation Xrotation Yrotation
							JOINT LeftHandThumb 
							{
								OFFSET	 0.00	0.00	 0.00
								CHANNELS 3 Zrotation Xrotation Yrotation
								End Site
								{
									OFFSET	 0.00	0.00	1.00000003353624
								}
							}
							JOINT L_Wrist_End 
							{
								OFFSET	 0.00	0.99999967115358	 0.00
								CHANNELS 3 Zrotation Xrotation Yrotation
								End Site 
								{
									OFFSET	 0.00	 0.00	 0.00
								}
							}
						}
					}
				}
			}
			JOINT RightShoulder
			{
				OFFSET	 0.00	 2.48462964506057	 0.00
				CHANNELS 3 Zrotation Xrotation Yrotation
				JOINT RightUpArm
				{
					OFFSET	 0.00	 1.24881979654096	 0.00
					CHANNELS 3 Zrotation Xrotation Yrotation
					JOINT RightForeArm
					{
						OFFSET	 0.00	2.59758046908119	 0.00
						CHANNELS 3 Zrotation Xrotation Yrotation
						JOINT RightHand
						{
							OFFSET	 0.00	2.45542024364365	 0.00
							CHANNELS 3 Zrotation Xrotation Yrotation
							JOINT RightHandThumb 
							{
								OFFSET	 0.00	0.00	 0.00
								CHANNELS 3 Zrotation Xrotation Yrotation
								End Site
								{
									OFFSET	 0.00	0.00	1.00000003353624
								}
							}
							JOINT R_Wrist_End 
							{
								OFFSET	 0.00	0.99999967115358	 0.00
								CHANNELS 3 Zrotation Xrotation Yrotation
								End Site 
								{
									OFFSET	 0.00	 0.00	 0.00
								}
							}
						}
					}
				}
			}
		}
	}
	JOINT LeftUpLeg
	{
		OFFSET	 1.2719394002717	 0.00	 0.00
		CHANNELS 3 Zrotation Xrotation Yrotation
		JOINT LeftLowLeg
		{
			OFFSET	 0.00	-4.3429100912261	 0.00
			CHANNELS 3 Zrotation Xrotation Yrotation
			JOINT LeftFoot
			{
				OFFSET	 0.00	-4.48767017425826	 0.00
				CHANNELS 3 Zrotation Xrotation Yrotation
				JOINT LeftToeBase
                {
                    OFFSET	 0.00	0.00	 1.51507020887566
                    CHANNELS 3 Zrotation Xrotation Yrotation
                    End Site 
                    {
                        OFFSET	 0.00	0.00	 0.75000010571191
                    }
                }
			}
		}
	}
	JOINT RightUpLeg
	{
		OFFSET	 -1.2719393604653	 0.00	 0.00
		CHANNELS 3 Zrotation Xrotation Yrotation
		JOINT RightLowLeg
		{
			OFFSET	 0.00	-4.3429100912261	 0.00
			CHANNELS 3 Zrotation Xrotation Yrotation
			JOINT RightFoot
			{
				OFFSET	 0.00	-4.48767017425826	 0.00
				CHANNELS 3 Zrotation Xrotation Yrotation
				JOINT RightToeBase
                {
                    OFFSET	 0.00	0.00	 1.51507020887566
                    CHANNELS 3 Zrotation Xrotation Yrotation
                    End Site 
                    {
                        OFFSET	 0.00	0.00	 0.749999965609858
                    }
                }   
			}
		}
	}
}
MOTION 
Frames:	15 
Frame Time: 0.02 
 1.1855599975585938 3.984049987792969 9.381439819335938 -154.404 81.6431 507.85 2.57995 -6.08994 0.405107 5.63138 -12.2648 0.936882 -42.7019 58.665 397.938 79.4904 -67.2246 -287.353 -114.2165 -7.85964 -11.1759 13.3075 14.5121 -26.1739 0.0 4.57722 0.0 25.4108 -11.0225 34.4993 0.0 0.0 0.0 0.0 0.0 0.0 108.2776 -4.64415 11.9146 -9.42 8.44405 46.189 0.0 16.2193 0.0 -32.2733 -15.5744 -58.2107 0.0 0.0 0.0 0.0 0.0 0.0 6.46728 -5.91209 -1.41925 0.0 5.84487 0.0 -17.5464 1.0129995 11.5695 0.0 -30.809101 0.0 5.49338 -6.02048 0.938266 0.0 8.02843 0.0 14.1508 6.1653795 -16.4795 0.0 -36.8842 0.0 
  1.1828700256347657 3.9771099853515626 9.380850219726563 -154.745 81.5922 508.048 2.56956 -6.25258 0.473985 5.61053 -12.2703 1.01185 -44.1201 57.5454 400.437 79.9226 -67.0882 -286.562 -114.181 -7.91957 -11.37 13.7155 14.606 -26.3939 0.0 4.5691 0.0 25.3999 -11.0652 34.7989 0.0 0.0 0.0 0.0 0.0 0.0 108.360596 -4.66539 11.9075 -9.61339 8.48181 46.4024 0.0 16.213 0.0 -32.2308 -15.3184 -58.5103 0.0 0.0 0.0 0.0 0.0 0.0 6.47391 -5.87612 -1.32751 0.0 5.79695 0.0 -17.5489 0.9584999 11.6224 0.0 -30.7588 0.0 5.50438 -6.02456 1.05293 0.0 7.98125 0.0 14.1301 6.1554804 -16.4588 0.0 -36.8755 0.0 
  1.1798500061035155 3.969849853515625 9.380560302734375 -155.164 81.503 508.332 2.58982 -6.44882 0.557262 5.5334 -12.2547 1.097 -45.1522 56.5849 402.355 80.3753 -66.9944 -285.787 -114.1546 -8.01926 -11.5393 14.2379 14.7292 -26.6783 0.0 4.5444 0.0 25.3909 -11.1372 35.1035 0.0 0.0 0.0 0.0 0.0 0.0 108.4574 -4.77998 11.9713 -9.76665 8.49128 46.5253 0.0 16.2504 0.0 -32.1842 -15.1489 -58.79 0.0 0.0 0.0 0.0 0.0 0.0 6.49151 -5.87632 -1.27361 0.0 5.75089 0.0 -17.5783 0.8930998 11.6905 0.0 -30.7164 0.0 5.52717 -6.06619 1.17906 0.0 7.93691 0.0 14.1205 6.1506796 -16.4643 0.0 -36.8237 0.0 
  1.1769200134277344 3.9630999755859375 9.380339965820312 -155.612 81.4082 508.679 2.5939 -6.60344 0.635118 5.45243 -12.3156 1.18447 -45.9454 55.7905 403.865 80.7278 -66.9351 -285.279 -114.1278 -8.09894 -11.6971 14.8326 14.7658 -26.6801 0.0 4.5724 0.0 25.2404 -11.3786 35.0123 0.0 0.0 0.0 0.0 0.0 0.0 108.5757 -4.91867 12.0198 -10.019 8.39331 46.0297 0.0 16.1926 0.0 -32.1655 -15.1782 -58.3164 0.0 0.0 0.0 0.0 0.0 0.0 6.50389 -5.89817 -1.23957 0.0 5.70636 0.0 -17.6048 0.8415003 11.7527 0.0 -30.6838 0.0 5.54237 -6.10685 1.2523 0.0 7.87142 0.0 14.096 6.1639404 -16.4499 0.0 -36.803802 0.0 
  1.1731300354003906 3.9553900146484375 9.380079956054688 -155.968 81.333 508.984 2.54373 -6.77926 0.68194 5.44351 -12.3103 1.24285 -46.4841 55.2235 404.866 80.9608 -66.9405 -284.868 -114.1298 -8.19342 -11.9703 15.4481 14.8445 -26.5428 0.0 4.50612 0.0 25.2021 -11.4903 34.9903 0.0 0.0 0.0 0.0 0.0 0.0 108.6747 -5.0325 12.046 -10.2992 8.23944 45.9426 0.0 16.187 0.0 -32.01 -15.2928 -58.615 0.0 0.0 0.0 0.0 0.0 0.0 6.51988 -5.8961 -1.20984 0.0 5.65501 0.0 -17.6181 0.8083 11.7678 0.0 -30.656101 0.0 5.55742 -6.11046 1.29599 0.0 7.79879 0.0 14.0978 6.1490498 -16.4484 0.0 -36.7825 0.0 
  1.170260009765625 3.9490200805664064 9.37989013671875 -156.371 81.249 509.323 2.51377 -6.89722 0.747197 5.41152 -12.3861 1.32287 -46.9102 54.769 405.646 81.1436 -66.9688 -284.617 -114.1246 -8.28754 -12.1878 16.085 14.8698 -26.5045 0.0 4.50893 0.0 25.2834 -11.5597 35.1198 0.0 0.0 0.0 0.0 0.0 0.0 108.7563 -5.182 12.1742 -10.5411 8.13026 45.8945 0.0 16.1607 0.0 -32.0907 -15.4716 -59.059 0.0 0.0 0.0 0.0 0.0 0.0 6.53 -5.92269 -1.15405 0.0 5.62007 0.0 -17.6411 0.78030014 11.7746 0.0 -30.6199 0.0 5.56438 -6.14715 1.33012 0.0 7.7501 0.0 14.106 6.1425896 -16.4176 0.0 -36.7351 0.0 
  1.1677100372314453 3.942449951171875 9.379869995117188 -156.611 81.1839 509.588 2.50107 -6.99872 0.750934 5.33654 -12.4433 1.33544 -47.1824 54.4606 406.125 81.2913 -67.0318 -284.537 -114.1341 -8.4473 -12.3875 16.7881 14.9247 -26.5615 0.0 4.49625 0.0 25.4064 -11.6028 35.1379 0.0 0.0 0.0 0.0 0.0 0.0 108.867004 -5.3234 12.2384 -10.7744 8.00515 46.0885 0.0 16.1138 0.0 -32.1479 -15.3327 -59.3167 0.0 0.0 0.0 0.0 0.0 0.0 6.5365 -5.95501 -1.15114 0.0 5.60527 0.0 -17.6328 0.7770004 11.7799 0.0 -30.624401 0.0 5.57247 -6.15635 1.27854 0.0 7.70906 0.0 14.0931 6.1361704 -16.4012 0.0 -36.7098 0.0 
  1.164800033569336 3.935169982910156 9.379949951171875 -157.03 81.0686 509.92 2.49947 -7.15399 0.807519 5.27707 -12.5133 1.40165 -47.4059 54.3557 406.41 81.5764 -67.0776 -284.267 -114.158005 -8.64171 -12.6674 17.4696 14.9875 -26.6208 0.0 4.57159 0.0 25.5957 -11.7168 35.1261 0.0 0.0 0.0 0.0 0.0 0.0 108.9523 -5.48135 12.3298 -10.988 7.90677 46.0512 0.0 16.0128 0.0 -32.4109 -15.3062 -59.3288 0.0 0.0 0.0 0.0 0.0 0.0 6.56272 -5.98288 -0.983053 0.0 5.538 0.0 -17.6502 0.77470016 11.7164 0.0 -30.6066 0.0 5.6016 -6.23348 1.4079 0.0 7.68937 0.0 14.0751 6.13381 -16.4486 0.0 -36.696 0.0 
  1.162760009765625 3.9315499877929687 9.380170288085937 -157.123 81.0331 510.14 2.4692 -7.2062 0.766017 5.2059 -12.5556 1.3692 -47.4738 54.3574 406.415 81.818 -67.167 -284.17 -114.2318 -8.79329 -12.9815 18.1738 15.0524 -26.6975 0.0 4.6364 0.0 25.8097 -11.749 35.1255 0.0 0.0 0.0 0.0 0.0 0.0 109.0674 -5.61268 12.4712 -11.2574 7.7207 45.7808 0.0 15.9779 0.0 -32.637 -15.426 -59.4479 0.0 0.0 0.0 0.0 0.0 0.0 6.56137 -6.05909 -1.08651 0.0 5.59989 0.0 -17.6382 0.7659998 11.7178 0.0 -30.5657 0.0 5.6097 -6.24264 1.36186 0.0 7.69313 0.0 14.0921 6.0864096 -16.524 0.0 -36.6544 0.0 
  1.1601699829101562 3.9240399169921876 9.3797998046875 -157.139 81.0369 510.172 2.44672 -7.26197 0.797685 5.14069 -12.5709 1.40994 -47.3883 54.5015 406.175 81.9287 -67.2155 -284.14 -114.2423 -8.93019 -13.1463 18.8132 15.084 -26.8211 0.0 4.69211 0.0 26.0172 -11.7515 35.165 0.0 0.0 0.0 0.0 0.0 0.0 109.1412 -5.79503 12.5964 -11.4443 7.57563 45.9618 0.0 15.9432 0.0 -32.884 -15.3597 -59.8407 0.0 0.0 0.0 0.0 0.0 0.0 6.5685 -5.9893 -1.07002 0.0 5.55324 0.0 -17.6619 0.76399994 11.675 0.0 -30.6105 0.0 5.61621 -6.18389 1.31611 0.0 7.67904 0.0 14.0633 6.05464 -16.5095 0.0 -36.6 0.0 
  1.1587200164794922 3.9177200317382814 9.379550170898437 -157.146 81.0459 510.242 2.40555 -7.3618 0.798689 5.10695 -12.4682 1.41403 -47.2521 54.5847 405.896 82.0219 -67.3071 -284.229 -114.296 -9.04536 -13.3548 19.4139 15.0847 -26.8082 0.0 4.77172 0.0 26.199 -11.806 35.3512 0.0 0.0 0.0 0.0 0.0 0.0 109.1981 -5.93552 12.7793 -11.6197 7.39346 45.9761 0.0 15.9547 0.0 -33.0075 -15.349 -59.8706 0.0 0.0 0.0 0.0 0.0 0.0 6.55751 -5.95911 -1.12304 0.0 5.55704 0.0 -17.6642 0.74450016 11.6784 0.0 -30.5671 0.0 5.61464 -6.14647 1.30628 0.0 7.70715 0.0 14.0576 5.99084 -16.5574 0.0 -36.5427 0.0 
  1.1574500274658204 3.9123300170898436 9.379190063476562 -157.043 81.0692 510.221 2.36319 -7.40164 0.798181 5.09523 -12.4304 1.42011 -47.1002 54.7697 405.542 82.0834 -67.3792 -284.375 -114.3441 -9.13052 -13.5467 19.9336 15.0376 -26.7653 0.0 4.87721 0.0 26.2545 -11.8647 35.1537 0.0 0.0 0.0 0.0 0.0 0.0 109.2526 -6.06254 12.8257 -11.8786 7.17259 45.8078 0.0 15.8828 0.0 -33.1575 -15.4133 -59.8601 0.0 0.0 0.0 0.0 0.0 0.0 6.55277 -5.9234 -1.20724 0.0 5.57086 0.0 -17.6608 0.7179003 11.6876 0.0 -30.5222 0.0 5.61717 -6.10843 1.27575 0.0 7.75971 0.0 14.0646 5.92268 -16.5969 0.0 -36.465 0.0 
  1.1564199829101562 3.907449951171875 9.378690185546875 -156.883 81.1181 510.15 2.3194 -7.44676 0.777961 5.07168 -12.3311 1.40248 -46.7864 55.0154 404.968 82.0833 -67.4469 -284.553 -114.3763 -9.21786 -13.7089 20.3923 14.9489 -27.0276 0.0 4.97273 0.0 26.2385 -11.7787 34.8878 0.0 0.0 0.0 0.0 0.0 0.0 109.281204 -6.18039 12.9072 -12.0103 6.97853 45.8129 0.0 15.9125 0.0 -33.2673 -15.3896 -59.9003 0.0 0.0 0.0 0.0 0.0 0.0 6.53996 -5.87515 -1.25499 0.0 5.60094 0.0 -17.669 0.69629955 11.6534 0.0 -30.540699 0.0 5.61981 -6.05012 1.34688 0.0 7.82543 0.0 14.1033 5.81446 -16.723 0.0 -36.420403 0.0 
  1.1553099822998047 3.902869873046875 9.378359985351562 -156.594 81.1744 509.964 2.29908 -7.51003 0.751275 5.01434 -12.1566 1.36987 -46.385 55.3448 404.223 82.1488 -67.5248 -284.643 -114.4553 -9.35834 -13.837 20.9377 15.029 -27.0886 0.0 4.77631 0.0 26.0657 -11.5578 34.2941 0.0 0.0 0.0 0.0 0.0 0.0 109.3621 -6.31709 13.1257 -12.0949 6.8511 45.7306 0.0 15.9936 0.0 -33.4099 -15.3298 -59.7746 0.0 0.0 0.0 0.0 0.0 0.0 6.54232 -5.82396 -1.3292 0.0 5.64691 0.0 -17.6697 0.67280006 11.6196 0.0 -30.5252 0.0 5.63343 -5.97765 1.39513 0.0 7.88763 0.0 14.1357 5.72875 -16.8446 0.0 -36.4222 0.0 
  1.1543299865722656 3.8980499267578126 9.377769775390625 -156.206 81.2719 509.695 2.27284 -7.5494 0.696 4.94473 -11.9477 1.30704 -45.8417 55.762 403.248 82.1445 -67.6128 -284.814 -114.4823 -9.49018 -14.1295 21.2467 14.9465 -26.9808 0.0 5.01805 0.0 26.004 -11.6043 34.3866 0.0 0.0 0.0 0.0 0.0 0.0 109.4137 -6.39018 13.2133 -12.1399 6.646 45.7318 0.0 16.0581 0.0 -33.2313 -15.197 -59.5023 0.0 0.0 0.0 0.0 0.0 0.0 6.5333 -5.73667 -1.42091 0.0 5.70363 0.0 -17.6696 0.6424999 11.5854 0.0 -30.4862 0.0 5.63523 -5.84764 1.41871 0.0 7.93017 0.0 14.1768 5.6260996 -16.9506 0.0 -36.3684 0.0 
